<?xml version="1.0" encoding="UTF-8" standalone="no"?>
<!DOCTYPE svg PUBLIC "-//W3C//DTD SVG 1.1//EN" "http://www.w3.org/Graphics/SVG/1.1/DTD/svg11.dtd">
<svg width="100%" height="100%" viewBox="0 0 660 660" version="1.1" xmlns="http://www.w3.org/2000/svg" xmlns:xlink="http://www.w3.org/1999/xlink" xml:space="preserve" xmlns:serif="http://www.serif.com/" style="fill-rule:evenodd;clip-rule:evenodd;stroke-linejoin:round;stroke-miterlimit:2;">
    <g id="vector">
        <g transform="matrix(-788.13,5.68434e-14,5.68434e-14,788.13,679.488,330)">
            <rect x="0.025" y="-0.419" width="0.837" height="0.837" style="fill:url(#_Linear1);"/>
        </g>
        <g opacity="0.1">
            <g transform="matrix(248.429,-248.428,-248.428,-248.429,397.492,272.744)">
                <path d="M0.064,-0.438C-0.7,-0.438 -1.319,-0.235 -1.319,0.015C-1.319,0.266 -0.7,0.469 0.064,0.469C0.828,0.469 1.448,0.266 1.448,0.015C1.448,-0.235 0.828,-0.438 0.064,-0.438Z" style="fill:url(#_Radial2);fill-rule:nonzero;"/>
            </g>
        </g>
        <g opacity="0.1">
            <g transform="matrix(320.23,-189.042,-189.042,-320.23,592.488,491.765)">
                <path d="M-0.202,-0.129C-0.783,-0.129 -1.254,0.025 -1.254,0.215C-1.254,0.406 -0.783,0.56 -0.202,0.56C0.379,0.56 0.849,0.406 0.849,0.215C0.849,0.025 0.379,-0.129 -0.202,-0.129Z" style="fill:url(#_Radial3);fill-rule:nonzero;"/>
            </g>
        </g>
        <g opacity="0.1">
            <g transform="matrix(2.675,-137.585,-99.9057,-277.098,510.324,597.186)">
                <path d="M-0.1,-0.129C-0.783,-0.129 -1.254,0.025 -1.254,0.215C-1.254,0.406 -0.783,0.56 -0.202,0.56C0.379,0.56 0.849,0.406 0.849,0.216C0.849,0.025 0.379,-0.129 -0.202,-0.129Z" style="fill:url(#_Radial4);fill-rule:nonzero;"/>
            </g>
        </g>
        <use xlink:href="#_Image5" x="0" y="0" width="293px" height="660px"/>
    </g>
    <defs>
        <linearGradient id="_Linear1" x1="12" y1="0" x2="1" y2="0" gradientUnits="userSpaceOnUse" gradientTransform="matrix(-0.696828,-0.717238,-0.717238,0.696828,0.75244,0.318051)"><stop offset="0" style="stop-color:rgb(18,40,89);stop-opacity:1"/><stop offset="1" style="stop-color:rgb(47,87,139);stop-opacity:1"/></linearGradient>
        <radialGradient id="_Radial2" cx="0" cy="0" r="1" gradientUnits="userSpaceOnUse" gradientTransform="matrix(0.719554,-0.710585,-0.698248,-0.707062,0.0171828,0.0750097)"><stop offset="0" style="stop-color:white;stop-opacity:1"/><stop offset="1" style="stop-color:rgb(47,87,139);stop-opacity:1"/></radialGradient>
        <radialGradient id="_Radial3" cx="0" cy="0" r="1" gradientUnits="userSpaceOnUse" gradientTransform="matrix(0.719524,-0.710615,-0.698278,-0.707032,0.0806733,0.228276)"><stop offset="0" style="stop-color:white;stop-opacity:1"/><stop offset="1" style="stop-color:rgb(47,87,139);stop-opacity:1"/></radialGradient>
        <radialGradient id="_Radial4" cx="0" cy="0" r="1" gradientUnits="userSpaceOnUse" gradientTransform="matrix(0.719564,-0.710575,-0.698238,-0.707071,0.0806805,0.228311)"><stop offset="0" style="stop-color:white;stop-opacity:1"/><stop offset="1" style="stop-color:rgb(47,87,139);stop-opacity:1"/></radialGradient>
    </defs>
  
</svg>
